<svg width="100%" viewBox="0 0 680 1416" role="img" xmlns="http://www.w3.org/2000/svg">
<title>Full travel planner workflow with coordinator</title>
<desc>A trip request enters the travel-coordinator hub, which gathers requirements, coordinates an execution plan, then runs three dependent parallel groups of sub-agents: Group A (a dynamically selected transport planner plus weather via Open-Meteo), Group B (accommodation, activities, food), and Group C (packing, budget aggregation). A validator quality gate with a targeted retry loop is followed by daily plan building, human approval with a revision loop, HTML rendering, and the final travel guide output.</desc>

<defs>
<marker id="arrow" viewBox="0 0 10 10" refX="8" refY="5" markerWidth="6" markerHeight="6" orient="auto-start-reverse"><path d="M2 1L8 5L2 9" fill="none" stroke="context-stroke" stroke-width="1.5" stroke-linecap="round" stroke-linejoin="round"/></marker>
<style>
  svg { font-family: "Anthropic Sans", -apple-system, BlinkMacSystemFont, "Segoe UI", sans-serif; }
  .edge { fill:none; stroke:rgb(137,135,129); stroke-width:1.5px; }
  .node { stroke-width:0.5px; rx:8; }
  .title { font-size:14px; font-weight:500; text-anchor:middle; dominant-baseline:central; }
  .sub   { font-size:12px; font-weight:400; text-anchor:middle; dominant-baseline:central; }

  .n-neutral { fill:rgb(241,239,232); stroke:rgb(95,94,90); }
  .t-neutral { fill:rgb(68,68,65); }  .s-neutral { fill:rgb(95,94,90); }
  .n-blue { fill:rgb(230,241,251); stroke:rgb(24,95,165); }
  .t-blue { fill:rgb(12,68,124); }  .s-blue { fill:rgb(24,95,165); }
  .n-purple { fill:rgb(238,237,254); stroke:rgb(83,74,183); }
  .t-purple { fill:rgb(60,52,137); }  .s-purple { fill:rgb(83,74,183); }
  .n-teal { fill:rgb(225,245,238); stroke:rgb(15,110,86); }
  .t-teal { fill:rgb(8,80,65); }  .s-teal { fill:rgb(15,110,86); }
  .n-amber { fill:rgb(250,238,218); stroke:rgb(133,79,11); }
  .t-amber { fill:rgb(99,56,6); }  .s-amber { fill:rgb(133,79,11); }
  .n-rose { fill:rgb(250,236,231); stroke:rgb(153,60,29); }
  .t-rose { fill:rgb(113,43,19); }  .s-rose { fill:rgb(153,60,29); }

  .group-box { fill:none; stroke:rgb(11,11,11); stroke-opacity:0.2; stroke-width:0.5px; stroke-dasharray:4 4; }
  .group-title { font-size:14px; font-weight:500; text-anchor:start; fill:rgb(11,11,11); }
  .group-sub { font-size:12px; font-weight:400; text-anchor:start; fill:rgb(82,81,78); }
  .loop { font-size:12px; font-weight:400; text-anchor:start; fill:rgb(82,81,78); }
</style>
</defs>

<!-- ===== connectors (main downward flow) ===== -->
<line class="edge" x1="340" y1="64"   x2="340" y2="114"  marker-end="url(#arrow)"/>
<line class="edge" x1="340" y1="170"  x2="340" y2="220"  marker-end="url(#arrow)"/>
<line class="edge" x1="340" y1="276"  x2="340" y2="326"  marker-end="url(#arrow)"/>
<line class="edge" x1="340" y1="382"  x2="340" y2="412"  marker-end="url(#arrow)"/>
<line class="edge" x1="340" y1="602"  x2="340" y2="632"  marker-end="url(#arrow)"/>
<line class="edge" x1="340" y1="750"  x2="340" y2="780"  marker-end="url(#arrow)"/>
<line class="edge" x1="340" y1="898"  x2="340" y2="928"  marker-end="url(#arrow)"/>
<line class="edge" x1="340" y1="984"  x2="340" y2="1034" marker-end="url(#arrow)"/>
<line class="edge" x1="340" y1="1090" x2="340" y2="1140" marker-end="url(#arrow)"/>
<line class="edge" x1="340" y1="1196" x2="340" y2="1246" marker-end="url(#arrow)"/>
<line class="edge" x1="340" y1="1302" x2="340" y2="1352" marker-end="url(#arrow)"/>

<!-- ===== Trip request ===== -->
<rect class="node n-neutral" x="240" y="20" width="200" height="44" rx="8"/>
<text class="title t-neutral" x="340" y="35">Trip request</text>
<text class="sub s-neutral" x="340" y="52">/plan-trip command</text>

<!-- ===== Travel coordinator (hub) ===== -->
<rect class="node n-blue" x="200" y="114" width="280" height="56" rx="8"/>
<text class="title t-blue" x="340" y="134">Travel coordinator</text>
<text class="sub s-blue" x="340" y="154">Hub · orchestrates every stage below</text>

<!-- ===== Requirements ===== -->
<rect class="node n-purple" x="220" y="220" width="240" height="56" rx="8"/>
<text class="title t-purple" x="340" y="240">Requirements</text>
<text class="sub s-purple" x="340" y="260">Batched Q&amp;A → requirements-formalizer</text>

<!-- ===== Coordinate ===== -->
<rect class="node n-purple" x="220" y="326" width="240" height="56" rx="8"/>
<text class="title t-purple" x="340" y="346">Coordinate</text>
<text class="sub s-purple" x="340" y="366">Select transport + agent set → plan</text>

<!-- ===== Group A container ===== -->
<rect class="group-box" x="20" y="412" width="640" height="190" rx="12"/>
<text class="group-title" x="40" y="436">Group A — parallel</text>
<text class="group-sub" x="40" y="454">Needs requirements · exactly one transport agent by mode</text>

<rect class="node n-teal" x="95" y="466" width="150" height="56" rx="8"/>
<text class="title t-teal" x="170" y="486">Flight</text>
<text class="sub s-teal" x="170" y="506">planner</text>

<rect class="node n-teal" x="265" y="466" width="150" height="56" rx="8"/>
<text class="title t-teal" x="340" y="486">Train</text>
<text class="sub s-teal" x="340" y="506">planner</text>

<rect class="node n-teal" x="435" y="466" width="150" height="56" rx="8"/>
<text class="title t-teal" x="510" y="486">Car</text>
<text class="sub s-teal" x="510" y="506">planner</text>

<rect class="node n-teal" x="220" y="538" width="240" height="56" rx="8"/>
<text class="title t-teal" x="340" y="558">Weather</text>
<text class="sub s-teal" x="340" y="578">Open-Meteo MCP</text>

<!-- ===== Group B container ===== -->
<rect class="group-box" x="20" y="632" width="640" height="118" rx="12"/>
<text class="group-title" x="40" y="656">Group B — parallel</text>
<text class="group-sub" x="40" y="674">Needs transport stops</text>

<rect class="node n-teal" x="95" y="686" width="150" height="56" rx="8"/>
<text class="title t-teal" x="170" y="706">Accommodation</text>
<text class="sub s-teal" x="170" y="726">planner</text>

<rect class="node n-teal" x="265" y="686" width="150" height="56" rx="8"/>
<text class="title t-teal" x="340" y="706">Activities</text>
<text class="sub s-teal" x="340" y="726">planner</text>

<rect class="node n-teal" x="435" y="686" width="150" height="56" rx="8"/>
<text class="title t-teal" x="510" y="706">Food</text>
<text class="sub s-teal" x="510" y="726">planner</text>

<!-- ===== Group C container ===== -->
<rect class="group-box" x="20" y="780" width="640" height="118" rx="12"/>
<text class="group-title" x="40" y="804">Group C — parallel</text>
<text class="group-sub" x="40" y="822">Needs Group A + B</text>

<rect class="node n-teal" x="170" y="834" width="150" height="56" rx="8"/>
<text class="title t-teal" x="245" y="854">Packing</text>
<text class="sub s-teal" x="245" y="874">planner</text>

<rect class="node n-teal" x="360" y="834" width="150" height="56" rx="8"/>
<text class="title t-teal" x="435" y="854">Budget</text>
<text class="sub s-teal" x="435" y="874">aggregator</text>

<!-- ===== Validator ===== -->
<rect class="node n-amber" x="220" y="928" width="240" height="56" rx="8"/>
<text class="title t-amber" x="340" y="948">Validator</text>
<text class="sub s-amber" x="340" y="968">Checks quality gates</text>
<text class="loop" x="470" y="956">↻ FAIL — targeted retry (max 3)</text>

<!-- ===== Daily plan builder ===== -->
<rect class="node n-rose" x="220" y="1034" width="240" height="56" rx="8"/>
<text class="title t-rose" x="340" y="1054">Daily plan builder</text>
<text class="sub s-rose" x="340" y="1074">Merges artifacts → plan (draft)</text>

<!-- ===== Human approval ===== -->
<rect class="node n-neutral" x="220" y="1140" width="240" height="56" rx="8"/>
<text class="title t-neutral" x="340" y="1160">Human approval</text>
<text class="sub s-neutral" x="340" y="1180">Human-in-the-loop</text>
<text class="loop" x="470" y="1168">↻ reject — targeted revision</text>

<!-- ===== HTML builder ===== -->
<rect class="node n-rose" x="220" y="1246" width="240" height="56" rx="8"/>
<text class="title t-rose" x="340" y="1266">HTML builder</text>
<text class="sub s-rose" x="340" y="1286">Builds HTML page</text>

<!-- ===== Travel guide ===== -->
<rect class="node n-neutral" x="240" y="1352" width="200" height="44" rx="8"/>
<text class="title t-neutral" x="340" y="1367">Travel guide</text>
<text class="sub s-neutral" x="340" y="1384">travel-guide.html</text>
</svg>
